ISO-10303-21;
HEADER;
/* Generated by software containing ST-Developer
 * from STEP Tools, Inc. (www.steptools.com) 
 */

FILE_DESCRIPTION(
/* description */ (''),
/* implementation_level */ '2;1');

FILE_NAME(
/* name */ 'NEWPCBBOTTOMREAL.step',
/* time_stamp */ '2025-12-05T22:20:06-05:00',
/* author */ (''),
/* organization */ (''),
/* preprocessor_version */ 'ST-DEVELOPER v20.1',
/* originating_system */ 'Autodesk Translation Framework v14.21.0.0',
/* authorisation */ '');

FILE_SCHEMA (('AUTOMOTIVE_DESIGN { 1 0 10303 214 3 1 1 }'));
ENDSEC;

DATA;
#10=MECHANICAL_DESIGN_GEOMETRIC_PRESENTATION_REPRESENTATION('',(#13),#923);
#11=SHAPE_REPRESENTATION_RELATIONSHIP('SRR','None',#930,#12);
#12=ADVANCED_BREP_SHAPE_REPRESENTATION('',(#14),#922);
#13=STYLED_ITEM('',(#939),#14);
#14=MANIFOLD_SOLID_BREP('Body1',#543);
#15=FACE_BOUND('',#99,.T.);
#16=FACE_BOUND('',#100,.T.);
#17=FACE_BOUND('',#101,.T.);
#18=FACE_BOUND('',#102,.T.);
#19=FACE_BOUND('',#119,.T.);
#20=FACE_BOUND('',#120,.T.);
#21=FACE_BOUND('',#121,.T.);
#22=FACE_BOUND('',#122,.T.);
#23=FACE_BOUND('',#125,.T.);
#24=FACE_BOUND('',#128,.T.);
#25=FACE_BOUND('',#131,.T.);
#26=FACE_BOUND('',#134,.T.);
#27=CIRCLE('',#562,5.);
#28=CIRCLE('',#563,5.);
#29=CIRCLE('',#565,5.);
#30=CIRCLE('',#566,5.);
#31=CIRCLE('',#567,5.);
#32=CIRCLE('',#568,1.7);
#33=CIRCLE('',#569,1.7);
#34=CIRCLE('',#570,1.7);
#35=CIRCLE('',#571,1.7);
#36=CIRCLE('',#574,5.);
#37=CIRCLE('',#576,5.);
#38=CIRCLE('',#579,5.);
#39=CIRCLE('',#583,3.);
#40=CIRCLE('',#584,3.);
#41=CIRCLE('',#586,3.);
#42=CIRCLE('',#587,3.);
#43=CIRCLE('',#589,3.);
#44=CIRCLE('',#590,3.);
#45=CIRCLE('',#592,3.);
#46=CIRCLE('',#593,3.);
#47=CIRCLE('',#600,1.7);
#48=CIRCLE('',#603,1.7);
#49=CIRCLE('',#606,1.7);
#50=CIRCLE('',#609,1.7);
#51=CYLINDRICAL_SURFACE('',#561,5.);
#52=CYLINDRICAL_SURFACE('',#573,5.);
#53=CYLINDRICAL_SURFACE('',#575,5.);
#54=CYLINDRICAL_SURFACE('',#578,5.);
#55=CYLINDRICAL_SURFACE('',#582,3.);
#56=CYLINDRICAL_SURFACE('',#585,3.);
#57=CYLINDRICAL_SURFACE('',#588,3.);
#58=CYLINDRICAL_SURFACE('',#591,3.);
#59=CYLINDRICAL_SURFACE('',#599,1.7);
#60=CYLINDRICAL_SURFACE('',#602,1.7);
#61=CYLINDRICAL_SURFACE('',#605,1.7);
#62=CYLINDRICAL_SURFACE('',#608,1.7);
#63=FACE_OUTER_BOUND('',#93,.T.);
#64=FACE_OUTER_BOUND('',#94,.T.);
#65=FACE_OUTER_BOUND('',#95,.T.);
#66=FACE_OUTER_BOUND('',#96,.T.);
#67=FACE_OUTER_BOUND('',#97,.T.);
#68=FACE_OUTER_BOUND('',#98,.T.);
#69=FACE_OUTER_BOUND('',#103,.T.);
#70=FACE_OUTER_BOUND('',#104,.T.);
#71=FACE_OUTER_BOUND('',#105,.T.);
#72=FACE_OUTER_BOUND('',#106,.T.);
#73=FACE_OUTER_BOUND('',#107,.T.);
#74=FACE_OUTER_BOUND('',#108,.T.);
#75=FACE_OUTER_BOUND('',#109,.T.);
#76=FACE_OUTER_BOUND('',#110,.T.);
#77=FACE_OUTER_BOUND('',#111,.T.);
#78=FACE_OUTER_BOUND('',#112,.T.);
#79=FACE_OUTER_BOUND('',#113,.T.);
#80=FACE_OUTER_BOUND('',#114,.T.);
#81=FACE_OUTER_BOUND('',#115,.T.);
#82=FACE_OUTER_BOUND('',#116,.T.);
#83=FACE_OUTER_BOUND('',#117,.T.);
#84=FACE_OUTER_BOUND('',#118,.T.);
#85=FACE_OUTER_BOUND('',#123,.T.);
#86=FACE_OUTER_BOUND('',#124,.T.);
#87=FACE_OUTER_BOUND('',#126,.T.);
#88=FACE_OUTER_BOUND('',#127,.T.);
#89=FACE_OUTER_BOUND('',#129,.T.);
#90=FACE_OUTER_BOUND('',#130,.T.);
#91=FACE_OUTER_BOUND('',#132,.T.);
#92=FACE_OUTER_BOUND('',#133,.T.);
#93=EDGE_LOOP('',(#351,#352,#353,#354));
#94=EDGE_LOOP('',(#355,#356,#357,#358));
#95=EDGE_LOOP('',(#359,#360,#361,#362));
#96=EDGE_LOOP('',(#363,#364,#365,#366,#367,#368,#369,#370));
#97=EDGE_LOOP('',(#371,#372,#373,#374));
#98=EDGE_LOOP('',(#375,#376,#377,#378,#379,#380,#381,#382,#383,#384,#385,
#386,#387,#388,#389,#390));
#99=EDGE_LOOP('',(#391));
#100=EDGE_LOOP('',(#392));
#101=EDGE_LOOP('',(#393));
#102=EDGE_LOOP('',(#394));
#103=EDGE_LOOP('',(#395,#396,#397,#398));
#104=EDGE_LOOP('',(#399,#400,#401,#402));
#105=EDGE_LOOP('',(#403,#404,#405,#406));
#106=EDGE_LOOP('',(#407,#408,#409,#410));
#107=EDGE_LOOP('',(#411,#412,#413,#414));
#108=EDGE_LOOP('',(#415,#416,#417,#418));
#109=EDGE_LOOP('',(#419,#420,#421,#422));
#110=EDGE_LOOP('',(#423,#424,#425,#426));
#111=EDGE_LOOP('',(#427,#428,#429,#430));
#112=EDGE_LOOP('',(#431,#432,#433,#434));
#113=EDGE_LOOP('',(#435,#436,#437,#438));
#114=EDGE_LOOP('',(#439,#440,#441,#442));
#115=EDGE_LOOP('',(#443,#444,#445,#446));
#116=EDGE_LOOP('',(#447,#448,#449,#450));
#117=EDGE_LOOP('',(#451,#452,#453,#454,#455,#456,#457,#458));
#118=EDGE_LOOP('',(#459,#460,#461,#462,#463,#464,#465,#466));
#119=EDGE_LOOP('',(#467));
#120=EDGE_LOOP('',(#468));
#121=EDGE_LOOP('',(#469));
#122=EDGE_LOOP('',(#470));
#123=EDGE_LOOP('',(#471,#472,#473,#474));
#124=EDGE_LOOP('',(#475));
#125=EDGE_LOOP('',(#476));
#126=EDGE_LOOP('',(#477,#478,#479,#480));
#127=EDGE_LOOP('',(#481));
#128=EDGE_LOOP('',(#482));
#129=EDGE_LOOP('',(#483,#484,#485,#486));
#130=EDGE_LOOP('',(#487));
#131=EDGE_LOOP('',(#488));
#132=EDGE_LOOP('',(#489,#490,#491,#492));
#133=EDGE_LOOP('',(#493));
#134=EDGE_LOOP('',(#494));
#135=LINE('',#773,#183);
#136=LINE('',#775,#184);
#137=LINE('',#777,#185);
#138=LINE('',#778,#186);
#139=LINE('',#782,#187);
#140=LINE('',#784,#188);
#141=LINE('',#786,#189);
#142=LINE('',#787,#190);
#143=LINE('',#789,#191);
#144=LINE('',#790,#192);
#145=LINE('',#793,#193);
#146=LINE('',#795,#194);
#147=LINE('',#797,#195);
#148=LINE('',#799,#196);
#149=LINE('',#800,#197);
#150=LINE('',#806,#198);
#151=LINE('',#809,#199);
#152=LINE('',#812,#200);
#153=LINE('',#814,#201);
#154=LINE('',#815,#202);
#155=LINE('',#816,#203);
#156=LINE('',#818,#204);
#157=LINE('',#822,#205);
#158=LINE('',#826,#206);
#159=LINE('',#829,#207);
#160=LINE('',#840,#208);
#161=LINE('',#841,#209);
#162=LINE('',#845,#210);
#163=LINE('',#848,#211);
#164=LINE('',#851,#212);
#165=LINE('',#854,#213);
#166=LINE('',#855,#214);
#167=LINE('',#858,#215);
#168=LINE('',#862,#216);
#169=LINE('',#864,#217);
#170=LINE('',#865,#218);
#171=LINE('',#867,#219);
#172=LINE('',#872,#220);
#173=LINE('',#878,#221);
#174=LINE('',#884,#222);
#175=LINE('',#890,#223);
#176=LINE('',#893,#224);
#177=LINE('',#896,#225);
#178=LINE('',#898,#226);
#179=LINE('',#902,#227);
#180=LINE('',#907,#228);
#181=LINE('',#912,#229);
#182=LINE('',#917,#230);
#183=VECTOR('',#615,10.);
#184=VECTOR('',#616,10.);
#185=VECTOR('',#617,10.);
#186=VECTOR('',#618,10.);
#187=VECTOR('',#621,10.);
#188=VECTOR('',#622,10.);
#189=VECTOR('',#623,10.);
#190=VECTOR('',#624,10.);
#191=VECTOR('',#627,10.);
#192=VECTOR('',#628,10.);
#193=VECTOR('',#631,10.);
#194=VECTOR('',#632,10.);
#195=VECTOR('',#633,10.);
#196=VECTOR('',#634,10.);
#197=VECTOR('',#635,10.);
#198=VECTOR('',#640,10.);
#199=VECTOR('',#643,10.);
#200=VECTOR('',#646,10.);
#201=VECTOR('',#647,10.);
#202=VECTOR('',#648,10.);
#203=VECTOR('',#649,10.);
#204=VECTOR('',#650,10.);
#205=VECTOR('',#653,10.);
#206=VECTOR('',#656,10.);
#207=VECTOR('',#659,10.);
#208=VECTOR('',#670,10.);
#209=VECTOR('',#671,10.);
#210=VECTOR('',#676,10.);
#211=VECTOR('',#679,10.);
#212=VECTOR('',#682,10.);
#213=VECTOR('',#685,10.);
#214=VECTOR('',#686,10.);
#215=VECTOR('',#689,10.);
#216=VECTOR('',#694,10.);
#217=VECTOR('',#695,10.);
#218=VECTOR('',#696,10.);
#219=VECTOR('',#699,10.);
#220=VECTOR('',#704,3.);
#221=VECTOR('',#711,3.);
#222=VECTOR('',#718,3.);
#223=VECTOR('',#725,3.);
#224=VECTOR('',#730,10.);
#225=VECTOR('',#735,10.);
#226=VECTOR('',#738,10.);
#227=VECTOR('',#743,1.7);
#228=VECTOR('',#750,1.7);
#229=VECTOR('',#757,1.7);
#230=VECTOR('',#764,1.7);
#231=VERTEX_POINT('',#771);
#232=VERTEX_POINT('',#772);
#233=VERTEX_POINT('',#774);
#234=VERTEX_POINT('',#776);
#235=VERTEX_POINT('',#780);
#236=VERTEX_POINT('',#781);
#237=VERTEX_POINT('',#783);
#238=VERTEX_POINT('',#785);
#239=VERTEX_POINT('',#792);
#240=VERTEX_POINT('',#794);
#241=VERTEX_POINT('',#796);
#242=VERTEX_POINT('',#798);
#243=VERTEX_POINT('',#802);
#244=VERTEX_POINT('',#803);
#245=VERTEX_POINT('',#805);
#246=VERTEX_POINT('',#807);
#247=VERTEX_POINT('',#811);
#248=VERTEX_POINT('',#813);
#249=VERTEX_POINT('',#817);
#250=VERTEX_POINT('',#819);
#251=VERTEX_POINT('',#821);
#252=VERTEX_POINT('',#823);
#253=VERTEX_POINT('',#825);
#254=VERTEX_POINT('',#827);
#255=VERTEX_POINT('',#830);
#256=VERTEX_POINT('',#832);
#257=VERTEX_POINT('',#834);
#258=VERTEX_POINT('',#836);
#259=VERTEX_POINT('',#839);
#260=VERTEX_POINT('',#843);
#261=VERTEX_POINT('',#847);
#262=VERTEX_POINT('',#849);
#263=VERTEX_POINT('',#853);
#264=VERTEX_POINT('',#857);
#265=VERTEX_POINT('',#861);
#266=VERTEX_POINT('',#863);
#267=VERTEX_POINT('',#869);
#268=VERTEX_POINT('',#871);
#269=VERTEX_POINT('',#875);
#270=VERTEX_POINT('',#877);
#271=VERTEX_POINT('',#881);
#272=VERTEX_POINT('',#883);
#273=VERTEX_POINT('',#887);
#274=VERTEX_POINT('',#889);
#275=VERTEX_POINT('',#901);
#276=VERTEX_POINT('',#906);
#277=VERTEX_POINT('',#911);
#278=VERTEX_POINT('',#916);
#279=EDGE_CURVE('',#231,#232,#135,.T.);
#280=EDGE_CURVE('',#233,#231,#136,.T.);
#281=EDGE_CURVE('',#233,#234,#137,.T.);
#282=EDGE_CURVE('',#232,#234,#138,.T.);
#283=EDGE_CURVE('',#235,#236,#139,.T.);
#284=EDGE_CURVE('',#237,#235,#140,.T.);
#285=EDGE_CURVE('',#237,#238,#141,.T.);
#286=EDGE_CURVE('',#236,#238,#142,.T.);
#287=EDGE_CURVE('',#234,#237,#143,.T.);
#288=EDGE_CURVE('',#238,#233,#144,.T.);
#289=EDGE_CURVE('',#239,#231,#145,.T.);
#290=EDGE_CURVE('',#240,#239,#146,.T.);
#291=EDGE_CURVE('',#240,#241,#147,.T.);
#292=EDGE_CURVE('',#241,#242,#148,.T.);
#293=EDGE_CURVE('',#236,#242,#149,.T.);
#294=EDGE_CURVE('',#243,#244,#27,.T.);
#295=EDGE_CURVE('',#244,#245,#150,.T.);
#296=EDGE_CURVE('',#245,#246,#28,.T.);
#297=EDGE_CURVE('',#246,#243,#151,.T.);
#298=EDGE_CURVE('',#242,#247,#152,.T.);
#299=EDGE_CURVE('',#247,#248,#153,.T.);
#300=EDGE_CURVE('',#248,#239,#154,.T.);
#301=EDGE_CURVE('',#232,#244,#155,.T.);
#302=EDGE_CURVE('',#243,#249,#156,.T.);
#303=EDGE_CURVE('',#250,#249,#29,.T.);
#304=EDGE_CURVE('',#250,#251,#157,.T.);
#305=EDGE_CURVE('',#252,#251,#30,.T.);
#306=EDGE_CURVE('',#252,#253,#158,.T.);
#307=EDGE_CURVE('',#254,#253,#31,.T.);
#308=EDGE_CURVE('',#254,#235,#159,.T.);
#309=EDGE_CURVE('',#255,#255,#32,.T.);
#310=EDGE_CURVE('',#256,#256,#33,.T.);
#311=EDGE_CURVE('',#257,#257,#34,.T.);
#312=EDGE_CURVE('',#258,#258,#35,.T.);
#313=EDGE_CURVE('',#259,#246,#160,.T.);
#314=EDGE_CURVE('',#249,#259,#161,.T.);
#315=EDGE_CURVE('',#259,#260,#36,.T.);
#316=EDGE_CURVE('',#260,#250,#162,.T.);
#317=EDGE_CURVE('',#253,#261,#163,.T.);
#318=EDGE_CURVE('',#261,#262,#37,.T.);
#319=EDGE_CURVE('',#262,#254,#164,.T.);
#320=EDGE_CURVE('',#263,#252,#165,.T.);
#321=EDGE_CURVE('',#261,#263,#166,.T.);
#322=EDGE_CURVE('',#251,#264,#167,.T.);
#323=EDGE_CURVE('',#264,#263,#38,.T.);
#324=EDGE_CURVE('',#241,#265,#168,.T.);
#325=EDGE_CURVE('',#266,#240,#169,.T.);
#326=EDGE_CURVE('',#265,#266,#170,.T.);
#327=EDGE_CURVE('',#266,#248,#171,.T.);
#328=EDGE_CURVE('',#267,#267,#39,.T.);
#329=EDGE_CURVE('',#267,#268,#172,.T.);
#330=EDGE_CURVE('',#268,#268,#40,.T.);
#331=EDGE_CURVE('',#269,#269,#41,.T.);
#332=EDGE_CURVE('',#269,#270,#173,.T.);
#333=EDGE_CURVE('',#270,#270,#42,.T.);
#334=EDGE_CURVE('',#271,#271,#43,.T.);
#335=EDGE_CURVE('',#271,#272,#174,.T.);
#336=EDGE_CURVE('',#272,#272,#44,.T.);
#337=EDGE_CURVE('',#273,#273,#45,.T.);
#338=EDGE_CURVE('',#273,#274,#175,.T.);
#339=EDGE_CURVE('',#274,#274,#46,.T.);
#340=EDGE_CURVE('',#265,#247,#176,.T.);
#341=EDGE_CURVE('',#264,#260,#177,.T.);
#342=EDGE_CURVE('',#245,#262,#178,.T.);
#343=EDGE_CURVE('',#256,#275,#179,.T.);
#344=EDGE_CURVE('',#275,#275,#47,.T.);
#345=EDGE_CURVE('',#257,#276,#180,.T.);
#346=EDGE_CURVE('',#276,#276,#48,.T.);
#347=EDGE_CURVE('',#255,#277,#181,.T.);
#348=EDGE_CURVE('',#277,#277,#49,.T.);
#349=EDGE_CURVE('',#258,#278,#182,.T.);
#350=EDGE_CURVE('',#278,#278,#50,.T.);
#351=ORIENTED_EDGE('',*,*,#279,.F.);
#352=ORIENTED_EDGE('',*,*,#280,.F.);
#353=ORIENTED_EDGE('',*,*,#281,.T.);
#354=ORIENTED_EDGE('',*,*,#282,.F.);
#355=ORIENTED_EDGE('',*,*,#283,.F.);
#356=ORIENTED_EDGE('',*,*,#284,.F.);
#357=ORIENTED_EDGE('',*,*,#285,.T.);
#358=ORIENTED_EDGE('',*,*,#286,.F.);
#359=ORIENTED_EDGE('',*,*,#287,.F.);
#360=ORIENTED_EDGE('',*,*,#281,.F.);
#361=ORIENTED_EDGE('',*,*,#288,.F.);
#362=ORIENTED_EDGE('',*,*,#285,.F.);
#363=ORIENTED_EDGE('',*,*,#286,.T.);
#364=ORIENTED_EDGE('',*,*,#288,.T.);
#365=ORIENTED_EDGE('',*,*,#280,.T.);
#366=ORIENTED_EDGE('',*,*,#289,.F.);
#367=ORIENTED_EDGE('',*,*,#290,.F.);
#368=ORIENTED_EDGE('',*,*,#291,.T.);
#369=ORIENTED_EDGE('',*,*,#292,.T.);
#370=ORIENTED_EDGE('',*,*,#293,.F.);
#371=ORIENTED_EDGE('',*,*,#294,.T.);
#372=ORIENTED_EDGE('',*,*,#295,.T.);
#373=ORIENTED_EDGE('',*,*,#296,.T.);
#374=ORIENTED_EDGE('',*,*,#297,.T.);
#375=ORIENTED_EDGE('',*,*,#283,.T.);
#376=ORIENTED_EDGE('',*,*,#293,.T.);
#377=ORIENTED_EDGE('',*,*,#298,.T.);
#378=ORIENTED_EDGE('',*,*,#299,.T.);
#379=ORIENTED_EDGE('',*,*,#300,.T.);
#380=ORIENTED_EDGE('',*,*,#289,.T.);
#381=ORIENTED_EDGE('',*,*,#279,.T.);
#382=ORIENTED_EDGE('',*,*,#301,.T.);
#383=ORIENTED_EDGE('',*,*,#294,.F.);
#384=ORIENTED_EDGE('',*,*,#302,.T.);
#385=ORIENTED_EDGE('',*,*,#303,.F.);
#386=ORIENTED_EDGE('',*,*,#304,.T.);
#387=ORIENTED_EDGE('',*,*,#305,.F.);
#388=ORIENTED_EDGE('',*,*,#306,.T.);
#389=ORIENTED_EDGE('',*,*,#307,.F.);
#390=ORIENTED_EDGE('',*,*,#308,.T.);
#391=ORIENTED_EDGE('',*,*,#309,.T.);
#392=ORIENTED_EDGE('',*,*,#310,.T.);
#393=ORIENTED_EDGE('',*,*,#311,.T.);
#394=ORIENTED_EDGE('',*,*,#312,.T.);
#395=ORIENTED_EDGE('',*,*,#297,.F.);
#396=ORIENTED_EDGE('',*,*,#313,.F.);
#397=ORIENTED_EDGE('',*,*,#314,.F.);
#398=ORIENTED_EDGE('',*,*,#302,.F.);
#399=ORIENTED_EDGE('',*,*,#303,.T.);
#400=ORIENTED_EDGE('',*,*,#314,.T.);
#401=ORIENTED_EDGE('',*,*,#315,.T.);
#402=ORIENTED_EDGE('',*,*,#316,.T.);
#403=ORIENTED_EDGE('',*,*,#307,.T.);
#404=ORIENTED_EDGE('',*,*,#317,.T.);
#405=ORIENTED_EDGE('',*,*,#318,.T.);
#406=ORIENTED_EDGE('',*,*,#319,.T.);
#407=ORIENTED_EDGE('',*,*,#317,.F.);
#408=ORIENTED_EDGE('',*,*,#306,.F.);
#409=ORIENTED_EDGE('',*,*,#320,.F.);
#410=ORIENTED_EDGE('',*,*,#321,.F.);
#411=ORIENTED_EDGE('',*,*,#305,.T.);
#412=ORIENTED_EDGE('',*,*,#322,.T.);
#413=ORIENTED_EDGE('',*,*,#323,.T.);
#414=ORIENTED_EDGE('',*,*,#320,.T.);
#415=ORIENTED_EDGE('',*,*,#324,.F.);
#416=ORIENTED_EDGE('',*,*,#291,.F.);
#417=ORIENTED_EDGE('',*,*,#325,.F.);
#418=ORIENTED_EDGE('',*,*,#326,.F.);
#419=ORIENTED_EDGE('',*,*,#325,.T.);
#420=ORIENTED_EDGE('',*,*,#290,.T.);
#421=ORIENTED_EDGE('',*,*,#300,.F.);
#422=ORIENTED_EDGE('',*,*,#327,.F.);
#423=ORIENTED_EDGE('',*,*,#328,.T.);
#424=ORIENTED_EDGE('',*,*,#329,.T.);
#425=ORIENTED_EDGE('',*,*,#330,.T.);
#426=ORIENTED_EDGE('',*,*,#329,.F.);
#427=ORIENTED_EDGE('',*,*,#331,.T.);
#428=ORIENTED_EDGE('',*,*,#332,.T.);
#429=ORIENTED_EDGE('',*,*,#333,.T.);
#430=ORIENTED_EDGE('',*,*,#332,.F.);
#431=ORIENTED_EDGE('',*,*,#334,.T.);
#432=ORIENTED_EDGE('',*,*,#335,.T.);
#433=ORIENTED_EDGE('',*,*,#336,.T.);
#434=ORIENTED_EDGE('',*,*,#335,.F.);
#435=ORIENTED_EDGE('',*,*,#337,.T.);
#436=ORIENTED_EDGE('',*,*,#338,.T.);
#437=ORIENTED_EDGE('',*,*,#339,.T.);
#438=ORIENTED_EDGE('',*,*,#338,.F.);
#439=ORIENTED_EDGE('',*,*,#326,.T.);
#440=ORIENTED_EDGE('',*,*,#327,.T.);
#441=ORIENTED_EDGE('',*,*,#299,.F.);
#442=ORIENTED_EDGE('',*,*,#340,.F.);
#443=ORIENTED_EDGE('',*,*,#324,.T.);
#444=ORIENTED_EDGE('',*,*,#340,.T.);
#445=ORIENTED_EDGE('',*,*,#298,.F.);
#446=ORIENTED_EDGE('',*,*,#292,.F.);
#447=ORIENTED_EDGE('',*,*,#316,.F.);
#448=ORIENTED_EDGE('',*,*,#341,.F.);
#449=ORIENTED_EDGE('',*,*,#322,.F.);
#450=ORIENTED_EDGE('',*,*,#304,.F.);
#451=ORIENTED_EDGE('',*,*,#284,.T.);
#452=ORIENTED_EDGE('',*,*,#308,.F.);
#453=ORIENTED_EDGE('',*,*,#319,.F.);
#454=ORIENTED_EDGE('',*,*,#342,.F.);
#455=ORIENTED_EDGE('',*,*,#295,.F.);
#456=ORIENTED_EDGE('',*,*,#301,.F.);
#457=ORIENTED_EDGE('',*,*,#282,.T.);
#458=ORIENTED_EDGE('',*,*,#287,.T.);
#459=ORIENTED_EDGE('',*,*,#296,.F.);
#460=ORIENTED_EDGE('',*,*,#342,.T.);
#461=ORIENTED_EDGE('',*,*,#318,.F.);
#462=ORIENTED_EDGE('',*,*,#321,.T.);
#463=ORIENTED_EDGE('',*,*,#323,.F.);
#464=ORIENTED_EDGE('',*,*,#341,.T.);
#465=ORIENTED_EDGE('',*,*,#315,.F.);
#466=ORIENTED_EDGE('',*,*,#313,.T.);
#467=ORIENTED_EDGE('',*,*,#333,.F.);
#468=ORIENTED_EDGE('',*,*,#336,.F.);
#469=ORIENTED_EDGE('',*,*,#339,.F.);
#470=ORIENTED_EDGE('',*,*,#330,.F.);
#471=ORIENTED_EDGE('',*,*,#310,.F.);
#472=ORIENTED_EDGE('',*,*,#343,.T.);
#473=ORIENTED_EDGE('',*,*,#344,.T.);
#474=ORIENTED_EDGE('',*,*,#343,.F.);
#475=ORIENTED_EDGE('',*,*,#337,.F.);
#476=ORIENTED_EDGE('',*,*,#344,.F.);
#477=ORIENTED_EDGE('',*,*,#311,.F.);
#478=ORIENTED_EDGE('',*,*,#345,.T.);
#479=ORIENTED_EDGE('',*,*,#346,.T.);
#480=ORIENTED_EDGE('',*,*,#345,.F.);
#481=ORIENTED_EDGE('',*,*,#334,.F.);
#482=ORIENTED_EDGE('',*,*,#346,.F.);
#483=ORIENTED_EDGE('',*,*,#309,.F.);
#484=ORIENTED_EDGE('',*,*,#347,.T.);
#485=ORIENTED_EDGE('',*,*,#348,.T.);
#486=ORIENTED_EDGE('',*,*,#347,.F.);
#487=ORIENTED_EDGE('',*,*,#331,.F.);
#488=ORIENTED_EDGE('',*,*,#348,.F.);
#489=ORIENTED_EDGE('',*,*,#312,.F.);
#490=ORIENTED_EDGE('',*,*,#349,.T.);
#491=ORIENTED_EDGE('',*,*,#350,.T.);
#492=ORIENTED_EDGE('',*,*,#349,.F.);
#493=ORIENTED_EDGE('',*,*,#328,.F.);
#494=ORIENTED_EDGE('',*,*,#350,.F.);
#495=PLANE('',#557);
#496=PLANE('',#558);
#497=PLANE('',#559);
#498=PLANE('',#560);
#499=PLANE('',#564);
#500=PLANE('',#572);
#501=PLANE('',#577);
#502=PLANE('',#580);
#503=PLANE('',#581);
#504=PLANE('',#594);
#505=PLANE('',#595);
#506=PLANE('',#596);
#507=PLANE('',#597);
#508=PLANE('',#598);
#509=PLANE('',#601);
#510=PLANE('',#604);
#511=PLANE('',#607);
#512=PLANE('',#610);
#513=ADVANCED_FACE('',(#63),#495,.F.);
#514=ADVANCED_FACE('',(#64),#496,.F.);
#515=ADVANCED_FACE('',(#65),#497,.F.);
#516=ADVANCED_FACE('',(#66),#498,.T.);
#517=ADVANCED_FACE('',(#67),#51,.T.);
#518=ADVANCED_FACE('',(#68,#15,#16,#17,#18),#499,.T.);
#519=ADVANCED_FACE('',(#69),#500,.T.);
#520=ADVANCED_FACE('',(#70),#52,.T.);
#521=ADVANCED_FACE('',(#71),#53,.T.);
#522=ADVANCED_FACE('',(#72),#501,.T.);
#523=ADVANCED_FACE('',(#73),#54,.T.);
#524=ADVANCED_FACE('',(#74),#502,.T.);
#525=ADVANCED_FACE('',(#75),#503,.T.);
#526=ADVANCED_FACE('',(#76),#55,.F.);
#527=ADVANCED_FACE('',(#77),#56,.F.);
#528=ADVANCED_FACE('',(#78),#57,.F.);
#529=ADVANCED_FACE('',(#79),#58,.F.);
#530=ADVANCED_FACE('',(#80),#504,.T.);
#531=ADVANCED_FACE('',(#81),#505,.T.);
#532=ADVANCED_FACE('',(#82),#506,.T.);
#533=ADVANCED_FACE('',(#83),#507,.T.);
#534=ADVANCED_FACE('',(#84,#19,#20,#21,#22),#508,.F.);
#535=ADVANCED_FACE('',(#85),#59,.F.);
#536=ADVANCED_FACE('',(#86,#23),#509,.F.);
#537=ADVANCED_FACE('',(#87),#60,.F.);
#538=ADVANCED_FACE('',(#88,#24),#510,.F.);
#539=ADVANCED_FACE('',(#89),#61,.F.);
#540=ADVANCED_FACE('',(#90,#25),#511,.F.);
#541=ADVANCED_FACE('',(#91),#62,.F.);
#542=ADVANCED_FACE('',(#92,#26),#512,.F.);
#543=CLOSED_SHELL('',(#513,#514,#515,#516,#517,#518,#519,#520,#521,#522,
#523,#524,#525,#526,#527,#528,#529,#530,#531,#532,#533,#534,#535,#536,#537,
#538,#539,#540,#541,#542));
#544=DERIVED_UNIT_ELEMENT(#546,1.);
#545=DERIVED_UNIT_ELEMENT(#925,-3.);
#546=(
MASS_UNIT()
NAMED_UNIT(*)
SI_UNIT(.KILO.,.GRAM.)
);
#547=DERIVED_UNIT((#544,#545));
#548=MEASURE_REPRESENTATION_ITEM('density measure',
POSITIVE_RATIO_MEASURE(7850.),#547);
#549=PROPERTY_DEFINITION_REPRESENTATION(#554,#551);
#550=PROPERTY_DEFINITION_REPRESENTATION(#555,#552);
#551=REPRESENTATION('material name',(#553),#922);
#552=REPRESENTATION('density',(#548),#922);
#553=DESCRIPTIVE_REPRESENTATION_ITEM('Steel','Steel');
#554=PROPERTY_DEFINITION('material property','material name',#932);
#555=PROPERTY_DEFINITION('material property','density of part',#932);
#556=AXIS2_PLACEMENT_3D('',#769,#611,#612);
#557=AXIS2_PLACEMENT_3D('',#770,#613,#614);
#558=AXIS2_PLACEMENT_3D('',#779,#619,#620);
#559=AXIS2_PLACEMENT_3D('',#788,#625,#626);
#560=AXIS2_PLACEMENT_3D('',#791,#629,#630);
#561=AXIS2_PLACEMENT_3D('',#801,#636,#637);
#562=AXIS2_PLACEMENT_3D('',#804,#638,#639);
#563=AXIS2_PLACEMENT_3D('',#808,#641,#642);
#564=AXIS2_PLACEMENT_3D('',#810,#644,#645);
#565=AXIS2_PLACEMENT_3D('',#820,#651,#652);
#566=AXIS2_PLACEMENT_3D('',#824,#654,#655);
#567=AXIS2_PLACEMENT_3D('',#828,#657,#658);
#568=AXIS2_PLACEMENT_3D('',#831,#660,#661);
#569=AXIS2_PLACEMENT_3D('',#833,#662,#663);
#570=AXIS2_PLACEMENT_3D('',#835,#664,#665);
#571=AXIS2_PLACEMENT_3D('',#837,#666,#667);
#572=AXIS2_PLACEMENT_3D('',#838,#668,#669);
#573=AXIS2_PLACEMENT_3D('',#842,#672,#673);
#574=AXIS2_PLACEMENT_3D('',#844,#674,#675);
#575=AXIS2_PLACEMENT_3D('',#846,#677,#678);
#576=AXIS2_PLACEMENT_3D('',#850,#680,#681);
#577=AXIS2_PLACEMENT_3D('',#852,#683,#684);
#578=AXIS2_PLACEMENT_3D('',#856,#687,#688);
#579=AXIS2_PLACEMENT_3D('',#859,#690,#691);
#580=AXIS2_PLACEMENT_3D('',#860,#692,#693);
#581=AXIS2_PLACEMENT_3D('',#866,#697,#698);
#582=AXIS2_PLACEMENT_3D('',#868,#700,#701);
#583=AXIS2_PLACEMENT_3D('',#870,#702,#703);
#584=AXIS2_PLACEMENT_3D('',#873,#705,#706);
#585=AXIS2_PLACEMENT_3D('',#874,#707,#708);
#586=AXIS2_PLACEMENT_3D('',#876,#709,#710);
#587=AXIS2_PLACEMENT_3D('',#879,#712,#713);
#588=AXIS2_PLACEMENT_3D('',#880,#714,#715);
#589=AXIS2_PLACEMENT_3D('',#882,#716,#717);
#590=AXIS2_PLACEMENT_3D('',#885,#719,#720);
#591=AXIS2_PLACEMENT_3D('',#886,#721,#722);
#592=AXIS2_PLACEMENT_3D('',#888,#723,#724);
#593=AXIS2_PLACEMENT_3D('',#891,#726,#727);
#594=AXIS2_PLACEMENT_3D('',#892,#728,#729);
#595=AXIS2_PLACEMENT_3D('',#894,#731,#732);
#596=AXIS2_PLACEMENT_3D('',#895,#733,#734);
#597=AXIS2_PLACEMENT_3D('',#897,#736,#737);
#598=AXIS2_PLACEMENT_3D('',#899,#739,#740);
#599=AXIS2_PLACEMENT_3D('',#900,#741,#742);
#600=AXIS2_PLACEMENT_3D('',#903,#744,#745);
#601=AXIS2_PLACEMENT_3D('',#904,#746,#747);
#602=AXIS2_PLACEMENT_3D('',#905,#748,#749);
#603=AXIS2_PLACEMENT_3D('',#908,#751,#752);
#604=AXIS2_PLACEMENT_3D('',#909,#753,#754);
#605=AXIS2_PLACEMENT_3D('',#910,#755,#756);
#606=AXIS2_PLACEMENT_3D('',#913,#758,#759);
#607=AXIS2_PLACEMENT_3D('',#914,#760,#761);
#608=AXIS2_PLACEMENT_3D('',#915,#762,#763);
#609=AXIS2_PLACEMENT_3D('',#918,#765,#766);
#610=AXIS2_PLACEMENT_3D('',#919,#767,#768);
#611=DIRECTION('axis',(0.,0.,1.));
#612=DIRECTION('refdir',(1.,0.,0.));
#613=DIRECTION('center_axis',(0.,1.,0.));
#614=DIRECTION('ref_axis',(1.,0.,0.));
#615=DIRECTION('',(1.,0.,0.));
#616=DIRECTION('',(0.,0.,1.));
#617=DIRECTION('',(1.,0.,0.));
#618=DIRECTION('',(0.,0.,-1.));
#619=DIRECTION('center_axis',(0.,-1.,0.));
#620=DIRECTION('ref_axis',(-1.,0.,0.));
#621=DIRECTION('',(-1.,0.,0.));
#622=DIRECTION('',(0.,0.,1.));
#623=DIRECTION('',(-1.,0.,0.));
#624=DIRECTION('',(0.,0.,-1.));
#625=DIRECTION('center_axis',(0.,0.,-1.));
#626=DIRECTION('ref_axis',(-1.,0.,0.));
#627=DIRECTION('',(0.,-1.,0.));
#628=DIRECTION('',(0.,1.,0.));
#629=DIRECTION('center_axis',(-1.,0.,0.));
#630=DIRECTION('ref_axis',(0.,-1.,0.));
#631=DIRECTION('',(0.,-1.,0.));
#632=DIRECTION('',(0.,0.,1.));
#633=DIRECTION('',(0.,-1.,0.));
#634=DIRECTION('',(0.,0.,1.));
#635=DIRECTION('',(0.,-1.,0.));
#636=DIRECTION('center_axis',(0.,0.,1.));
#637=DIRECTION('ref_axis',(0.707106781186548,0.707106781186547,0.));
#638=DIRECTION('center_axis',(0.,0.,-1.));
#639=DIRECTION('ref_axis',(0.707106781186548,0.707106781186547,0.));
#640=DIRECTION('',(0.,0.,-1.));
#641=DIRECTION('center_axis',(0.,0.,1.));
#642=DIRECTION('ref_axis',(0.707106781186548,0.707106781186547,0.));
#643=DIRECTION('',(0.,0.,1.));
#644=DIRECTION('center_axis',(0.,0.,1.));
#645=DIRECTION('ref_axis',(1.,0.,0.));
#646=DIRECTION('',(-1.,1.52607975893492E-16,0.));
#647=DIRECTION('',(0.,1.,0.));
#648=DIRECTION('',(1.,0.,0.));
#649=DIRECTION('',(0.,1.,0.));
#650=DIRECTION('',(-1.,0.,0.));
#651=DIRECTION('center_axis',(0.,0.,-1.));
#652=DIRECTION('ref_axis',(-0.707106781186547,0.707106781186547,0.));
#653=DIRECTION('',(0.,-1.,0.));
#654=DIRECTION('center_axis',(0.,0.,-1.));
#655=DIRECTION('ref_axis',(-0.707106781186547,-0.707106781186547,0.));
#656=DIRECTION('',(1.,5.67889015153533E-17,0.));
#657=DIRECTION('center_axis',(0.,0.,-1.));
#658=DIRECTION('ref_axis',(0.707106781186547,-0.707106781186548,0.));
#659=DIRECTION('',(0.,1.,0.));
#660=DIRECTION('center_axis',(0.,0.,-1.));
#661=DIRECTION('ref_axis',(1.,0.,0.));
#662=DIRECTION('center_axis',(0.,0.,-1.));
#663=DIRECTION('ref_axis',(1.,0.,0.));
#664=DIRECTION('center_axis',(0.,0.,-1.));
#665=DIRECTION('ref_axis',(1.,0.,0.));
#666=DIRECTION('center_axis',(0.,0.,-1.));
#667=DIRECTION('ref_axis',(1.,0.,0.));
#668=DIRECTION('center_axis',(0.,1.,0.));
#669=DIRECTION('ref_axis',(-1.,0.,0.));
#670=DIRECTION('',(1.,0.,0.));
#671=DIRECTION('',(0.,0.,-1.));
#672=DIRECTION('center_axis',(0.,0.,1.));
#673=DIRECTION('ref_axis',(-0.707106781186547,0.707106781186547,0.));
#674=DIRECTION('center_axis',(0.,0.,1.));
#675=DIRECTION('ref_axis',(-0.707106781186547,0.707106781186547,0.));
#676=DIRECTION('',(0.,0.,1.));
#677=DIRECTION('center_axis',(0.,0.,1.));
#678=DIRECTION('ref_axis',(0.707106781186547,-0.707106781186548,0.));
#679=DIRECTION('',(0.,0.,-1.));
#680=DIRECTION('center_axis',(0.,0.,1.));
#681=DIRECTION('ref_axis',(0.707106781186547,-0.707106781186548,0.));
#682=DIRECTION('',(0.,0.,1.));
#683=DIRECTION('center_axis',(5.67889015153533E-17,-1.,0.));
#684=DIRECTION('ref_axis',(1.,5.67889015153533E-17,0.));
#685=DIRECTION('',(0.,0.,1.));
#686=DIRECTION('',(-1.,-5.67889015153533E-17,0.));
#687=DIRECTION('center_axis',(0.,0.,1.));
#688=DIRECTION('ref_axis',(-0.707106781186547,-0.707106781186547,0.));
#689=DIRECTION('',(0.,0.,-1.));
#690=DIRECTION('center_axis',(0.,0.,1.));
#691=DIRECTION('ref_axis',(-0.707106781186547,-0.707106781186547,0.));
#692=DIRECTION('center_axis',(0.,0.,1.));
#693=DIRECTION('ref_axis',(1.,0.,0.));
#694=DIRECTION('',(-1.,1.52607975893492E-16,0.));
#695=DIRECTION('',(1.,0.,0.));
#696=DIRECTION('',(0.,1.,0.));
#697=DIRECTION('center_axis',(0.,-1.,0.));
#698=DIRECTION('ref_axis',(1.,0.,0.));
#699=DIRECTION('',(0.,0.,1.));
#700=DIRECTION('center_axis',(0.,0.,1.));
#701=DIRECTION('ref_axis',(1.,0.,0.));
#702=DIRECTION('center_axis',(0.,0.,1.));
#703=DIRECTION('ref_axis',(1.,0.,0.));
#704=DIRECTION('',(0.,0.,-1.));
#705=DIRECTION('center_axis',(0.,0.,-1.));
#706=DIRECTION('ref_axis',(1.,0.,0.));
#707=DIRECTION('center_axis',(0.,0.,1.));
#708=DIRECTION('ref_axis',(1.,0.,0.));
#709=DIRECTION('center_axis',(0.,0.,1.));
#710=DIRECTION('ref_axis',(1.,0.,0.));
#711=DIRECTION('',(0.,0.,-1.));
#712=DIRECTION('center_axis',(0.,0.,-1.));
#713=DIRECTION('ref_axis',(1.,0.,0.));
#714=DIRECTION('center_axis',(0.,0.,1.));
#715=DIRECTION('ref_axis',(1.,0.,0.));
#716=DIRECTION('center_axis',(0.,0.,1.));
#717=DIRECTION('ref_axis',(1.,0.,0.));
#718=DIRECTION('',(0.,0.,-1.));
#719=DIRECTION('center_axis',(0.,0.,-1.));
#720=DIRECTION('ref_axis',(1.,0.,0.));
#721=DIRECTION('center_axis',(0.,0.,1.));
#722=DIRECTION('ref_axis',(1.,0.,0.));
#723=DIRECTION('center_axis',(0.,0.,1.));
#724=DIRECTION('ref_axis',(1.,0.,0.));
#725=DIRECTION('',(0.,0.,-1.));
#726=DIRECTION('center_axis',(0.,0.,-1.));
#727=DIRECTION('ref_axis',(1.,0.,0.));
#728=DIRECTION('center_axis',(1.,0.,0.));
#729=DIRECTION('ref_axis',(0.,1.,0.));
#730=DIRECTION('',(0.,0.,1.));
#731=DIRECTION('center_axis',(1.52607975893492E-16,1.,0.));
#732=DIRECTION('ref_axis',(-1.,1.52607975893492E-16,0.));
#733=DIRECTION('center_axis',(-1.,0.,0.));
#734=DIRECTION('ref_axis',(0.,-1.,0.));
#735=DIRECTION('',(0.,1.,0.));
#736=DIRECTION('center_axis',(1.,0.,0.));
#737=DIRECTION('ref_axis',(0.,1.,0.));
#738=DIRECTION('',(0.,-1.,0.));
#739=DIRECTION('center_axis',(0.,0.,1.));
#740=DIRECTION('ref_axis',(1.,0.,0.));
#741=DIRECTION('center_axis',(0.,0.,1.));
#742=DIRECTION('ref_axis',(1.,0.,0.));
#743=DIRECTION('',(0.,0.,-1.));
#744=DIRECTION('center_axis',(0.,0.,-1.));
#745=DIRECTION('ref_axis',(1.,0.,0.));
#746=DIRECTION('center_axis',(0.,0.,1.));
#747=DIRECTION('ref_axis',(1.,0.,0.));
#748=DIRECTION('center_axis',(0.,0.,1.));
#749=DIRECTION('ref_axis',(1.,0.,0.));
#750=DIRECTION('',(0.,0.,-1.));
#751=DIRECTION('center_axis',(0.,0.,-1.));
#752=DIRECTION('ref_axis',(1.,0.,0.));
#753=DIRECTION('center_axis',(0.,0.,1.));
#754=DIRECTION('ref_axis',(1.,0.,0.));
#755=DIRECTION('center_axis',(0.,0.,1.));
#756=DIRECTION('ref_axis',(1.,0.,0.));
#757=DIRECTION('',(0.,0.,-1.));
#758=DIRECTION('center_axis',(0.,0.,-1.));
#759=DIRECTION('ref_axis',(1.,0.,0.));
#760=DIRECTION('center_axis',(0.,0.,1.));
#761=DIRECTION('ref_axis',(1.,0.,0.));
#762=DIRECTION('center_axis',(0.,0.,1.));
#763=DIRECTION('ref_axis',(1.,0.,0.));
#764=DIRECTION('',(0.,0.,-1.));
#765=DIRECTION('center_axis',(0.,0.,-1.));
#766=DIRECTION('ref_axis',(1.,0.,0.));
#767=DIRECTION('center_axis',(0.,0.,1.));
#768=DIRECTION('ref_axis',(1.,0.,0.));
#769=CARTESIAN_POINT('',(0.,0.,0.));
#770=CARTESIAN_POINT('Origin',(13.2,33.943,13.));
#771=CARTESIAN_POINT('',(13.2,33.943,13.));
#772=CARTESIAN_POINT('',(23.7,33.943,13.));
#773=CARTESIAN_POINT('',(15.95,33.943,13.));
#774=CARTESIAN_POINT('',(13.2,33.943,5.5));
#775=CARTESIAN_POINT('',(13.2,33.943,6.5));
#776=CARTESIAN_POINT('',(23.7,33.943,5.5));
#777=CARTESIAN_POINT('',(23.7,33.943,5.5));
#778=CARTESIAN_POINT('',(23.7,33.943,6.5));
#779=CARTESIAN_POINT('Origin',(23.7,15.443,13.));
#780=CARTESIAN_POINT('',(23.7,15.443,13.));
#781=CARTESIAN_POINT('',(13.2,15.443,13.));
#782=CARTESIAN_POINT('',(21.2,15.443,13.));
#783=CARTESIAN_POINT('',(23.7,15.443,5.5));
#784=CARTESIAN_POINT('',(23.7,15.443,6.5));
#785=CARTESIAN_POINT('',(13.2,15.443,5.5));
#786=CARTESIAN_POINT('',(13.2,15.443,5.5));
#787=CARTESIAN_POINT('',(13.2,15.443,6.5));
#788=CARTESIAN_POINT('Origin',(18.45,24.693,5.5));
#789=CARTESIAN_POINT('',(23.7,-5.05350000000001,5.5));
#790=CARTESIAN_POINT('',(13.2,29.8465,5.5));
#791=CARTESIAN_POINT('Origin',(13.2,35.,0.));
#792=CARTESIAN_POINT('',(13.2,35.,13.));
#793=CARTESIAN_POINT('',(13.2,35.,13.));
#794=CARTESIAN_POINT('',(13.2,35.,3.));
#795=CARTESIAN_POINT('',(13.2,35.,0.));
#796=CARTESIAN_POINT('',(13.2,-25.3,3.));
#797=CARTESIAN_POINT('',(13.2,19.925,3.));
#798=CARTESIAN_POINT('',(13.2,-25.3,13.));
#799=CARTESIAN_POINT('',(13.2,-25.3,0.));
#800=CARTESIAN_POINT('',(13.2,35.,13.));
#801=CARTESIAN_POINT('Origin',(18.7,40.5,0.));
#802=CARTESIAN_POINT('',(18.7,45.5,13.));
#803=CARTESIAN_POINT('',(23.7,40.5,13.));
#804=CARTESIAN_POINT('Origin',(18.7,40.5,13.));
#805=CARTESIAN_POINT('',(23.7,40.5,0.));
#806=CARTESIAN_POINT('',(23.7,40.5,0.));
#807=CARTESIAN_POINT('',(18.7,45.5,0.));
#808=CARTESIAN_POINT('Origin',(18.7,40.5,0.));
#809=CARTESIAN_POINT('',(18.7,45.5,0.));
#810=CARTESIAN_POINT('Origin',(18.7,40.5,13.));
#811=CARTESIAN_POINT('',(-45.,-25.3,13.));
#812=CARTESIAN_POINT('',(13.2,-25.3,13.));
#813=CARTESIAN_POINT('',(-45.,35.,13.));
#814=CARTESIAN_POINT('',(-45.,-25.3,13.));
#815=CARTESIAN_POINT('',(-45.,35.,13.));
#816=CARTESIAN_POINT('',(23.7,45.5,13.));
#817=CARTESIAN_POINT('',(-49.5,45.5,13.));
#818=CARTESIAN_POINT('',(-54.5,45.5,13.));
#819=CARTESIAN_POINT('',(-54.5,40.5,13.));
#820=CARTESIAN_POINT('Origin',(-49.5,40.5,13.));
#821=CARTESIAN_POINT('',(-54.5,-29.8,13.));
#822=CARTESIAN_POINT('',(-54.5,-34.8,13.));
#823=CARTESIAN_POINT('',(-49.5,-34.8,13.));
#824=CARTESIAN_POINT('Origin',(-49.5,-29.8,13.));
#825=CARTESIAN_POINT('',(18.7,-34.8,13.));
#826=CARTESIAN_POINT('',(23.7,-34.8,13.));
#827=CARTESIAN_POINT('',(23.7,-29.8,13.));
#828=CARTESIAN_POINT('Origin',(18.7,-29.8,13.));
#829=CARTESIAN_POINT('',(23.7,45.5,13.));
#830=CARTESIAN_POINT('',(-51.2,40.5,13.));
#831=CARTESIAN_POINT('Origin',(-49.5,40.5,13.));
#832=CARTESIAN_POINT('',(17.,-29.8,13.));
#833=CARTESIAN_POINT('Origin',(18.7,-29.8,13.));
#834=CARTESIAN_POINT('',(-51.2,-29.8,13.));
#835=CARTESIAN_POINT('Origin',(-49.5,-29.8,13.));
#836=CARTESIAN_POINT('',(17.,40.5,13.));
#837=CARTESIAN_POINT('Origin',(18.7,40.5,13.));
#838=CARTESIAN_POINT('Origin',(23.7,45.5,0.));
#839=CARTESIAN_POINT('',(-49.5,45.5,0.));
#840=CARTESIAN_POINT('',(-54.5,45.5,0.));
#841=CARTESIAN_POINT('',(-49.5,45.5,0.));
#842=CARTESIAN_POINT('Origin',(-49.5,40.5,0.));
#843=CARTESIAN_POINT('',(-54.5,40.5,0.));
#844=CARTESIAN_POINT('Origin',(-49.5,40.5,0.));
#845=CARTESIAN_POINT('',(-54.5,40.5,0.));
#846=CARTESIAN_POINT('Origin',(18.7,-29.8,0.));
#847=CARTESIAN_POINT('',(18.7,-34.8,0.));
#848=CARTESIAN_POINT('',(18.7,-34.8,0.));
#849=CARTESIAN_POINT('',(23.7,-29.8,0.));
#850=CARTESIAN_POINT('Origin',(18.7,-29.8,0.));
#851=CARTESIAN_POINT('',(23.7,-29.8,0.));
#852=CARTESIAN_POINT('Origin',(-54.5,-34.8,0.));
#853=CARTESIAN_POINT('',(-49.5,-34.8,0.));
#854=CARTESIAN_POINT('',(-49.5,-34.8,0.));
#855=CARTESIAN_POINT('',(23.7,-34.8,0.));
#856=CARTESIAN_POINT('Origin',(-49.5,-29.8,0.));
#857=CARTESIAN_POINT('',(-54.5,-29.8,0.));
#858=CARTESIAN_POINT('',(-54.5,-29.8,0.));
#859=CARTESIAN_POINT('Origin',(-49.5,-29.8,0.));
#860=CARTESIAN_POINT('Origin',(-15.9,4.85,3.));
#861=CARTESIAN_POINT('',(-45.,-25.3,3.));
#862=CARTESIAN_POINT('',(-1.35,-25.3,3.));
#863=CARTESIAN_POINT('',(-45.,35.,3.));
#864=CARTESIAN_POINT('',(-30.45,35.,3.));
#865=CARTESIAN_POINT('',(-45.,-10.225,3.));
#866=CARTESIAN_POINT('Origin',(-45.,35.,0.));
#867=CARTESIAN_POINT('',(-45.,35.,0.));
#868=CARTESIAN_POINT('Origin',(18.7,40.5,0.));
#869=CARTESIAN_POINT('',(15.7,40.5,3.1));
#870=CARTESIAN_POINT('Origin',(18.7,40.5,3.1));
#871=CARTESIAN_POINT('',(15.7,40.5,0.));
#872=CARTESIAN_POINT('',(15.7,40.5,0.));
#873=CARTESIAN_POINT('Origin',(18.7,40.5,0.));
#874=CARTESIAN_POINT('Origin',(-49.5,40.5,0.));
#875=CARTESIAN_POINT('',(-52.5,40.5,3.1));
#876=CARTESIAN_POINT('Origin',(-49.5,40.5,3.1));
#877=CARTESIAN_POINT('',(-52.5,40.5,0.));
#878=CARTESIAN_POINT('',(-52.5,40.5,0.));
#879=CARTESIAN_POINT('Origin',(-49.5,40.5,0.));
#880=CARTESIAN_POINT('Origin',(-49.5,-29.8,0.));
#881=CARTESIAN_POINT('',(-52.5,-29.8,3.1));
#882=CARTESIAN_POINT('Origin',(-49.5,-29.8,3.1));
#883=CARTESIAN_POINT('',(-52.5,-29.8,0.));
#884=CARTESIAN_POINT('',(-52.5,-29.8,0.));
#885=CARTESIAN_POINT('Origin',(-49.5,-29.8,0.));
#886=CARTESIAN_POINT('Origin',(18.7,-29.8,0.));
#887=CARTESIAN_POINT('',(15.7,-29.8,3.1));
#888=CARTESIAN_POINT('Origin',(18.7,-29.8,3.1));
#889=CARTESIAN_POINT('',(15.7,-29.8,0.));
#890=CARTESIAN_POINT('',(15.7,-29.8,0.));
#891=CARTESIAN_POINT('Origin',(18.7,-29.8,0.));
#892=CARTESIAN_POINT('Origin',(-45.,-25.3,0.));
#893=CARTESIAN_POINT('',(-45.,-25.3,0.));
#894=CARTESIAN_POINT('Origin',(13.2,-25.3,0.));
#895=CARTESIAN_POINT('Origin',(-54.5,45.5,0.));
#896=CARTESIAN_POINT('',(-54.5,-34.8,0.));
#897=CARTESIAN_POINT('Origin',(23.7,-34.8,0.));
#898=CARTESIAN_POINT('',(23.7,45.5,0.));
#899=CARTESIAN_POINT('Origin',(-15.4,5.34999999999999,0.));
#900=CARTESIAN_POINT('Origin',(18.7,-29.8,3.1));
#901=CARTESIAN_POINT('',(17.,-29.8,3.1));
#902=CARTESIAN_POINT('',(17.,-29.8,3.1));
#903=CARTESIAN_POINT('Origin',(18.7,-29.8,3.1));
#904=CARTESIAN_POINT('Origin',(18.7,-29.8,3.1));
#905=CARTESIAN_POINT('Origin',(-49.5,-29.8,3.1));
#906=CARTESIAN_POINT('',(-51.2,-29.8,3.1));
#907=CARTESIAN_POINT('',(-51.2,-29.8,3.1));
#908=CARTESIAN_POINT('Origin',(-49.5,-29.8,3.1));
#909=CARTESIAN_POINT('Origin',(-49.5,-29.8,3.1));
#910=CARTESIAN_POINT('Origin',(-49.5,40.5,3.1));
#911=CARTESIAN_POINT('',(-51.2,40.5,3.1));
#912=CARTESIAN_POINT('',(-51.2,40.5,3.1));
#913=CARTESIAN_POINT('Origin',(-49.5,40.5,3.1));
#914=CARTESIAN_POINT('Origin',(-49.5,40.5,3.1));
#915=CARTESIAN_POINT('Origin',(18.7,40.5,3.1));
#916=CARTESIAN_POINT('',(17.,40.5,3.1));
#917=CARTESIAN_POINT('',(17.,40.5,3.1));
#918=CARTESIAN_POINT('Origin',(18.7,40.5,3.1));
#919=CARTESIAN_POINT('Origin',(18.7,40.5,3.1));
#920=UNCERTAINTY_MEASURE_WITH_UNIT(LENGTH_MEASURE(0.01),#924,
'DISTANCE_ACCURACY_VALUE',
'Maximum model space distance between geometric entities at asserted c
onnectivities');
#921=UNCERTAINTY_MEASURE_WITH_UNIT(LENGTH_MEASURE(0.01),#924,
'DISTANCE_ACCURACY_VALUE',
'Maximum model space distance between geometric entities at asserted c
onnectivities');
#922=(
GEOMETRIC_REPRESENTATION_CONTEXT(3)
GLOBAL_UNCERTAINTY_ASSIGNED_CONTEXT((#920))
GLOBAL_UNIT_ASSIGNED_CONTEXT((#924,#926,#927))
REPRESENTATION_CONTEXT('','3D')
);
#923=(
GEOMETRIC_REPRESENTATION_CONTEXT(3)
GLOBAL_UNCERTAINTY_ASSIGNED_CONTEXT((#921))
GLOBAL_UNIT_ASSIGNED_CONTEXT((#924,#926,#927))
REPRESENTATION_CONTEXT('','3D')
);
#924=(
LENGTH_UNIT()
NAMED_UNIT(*)
SI_UNIT(.MILLI.,.METRE.)
);
#925=(
LENGTH_UNIT()
NAMED_UNIT(*)
SI_UNIT($,.METRE.)
);
#926=(
NAMED_UNIT(*)
PLANE_ANGLE_UNIT()
SI_UNIT($,.RADIAN.)
);
#927=(
NAMED_UNIT(*)
SI_UNIT($,.STERADIAN.)
SOLID_ANGLE_UNIT()
);
#928=SHAPE_DEFINITION_REPRESENTATION(#929,#930);
#929=PRODUCT_DEFINITION_SHAPE('',$,#932);
#930=SHAPE_REPRESENTATION('',(#556),#922);
#931=PRODUCT_DEFINITION_CONTEXT('part definition',#936,'design');
#932=PRODUCT_DEFINITION('2025-12-05-22-00-25-822','NEWPCB',#933,#931);
#933=PRODUCT_DEFINITION_FORMATION('',$,#938);
#934=PRODUCT_RELATED_PRODUCT_CATEGORY('NEWPCB','NEWPCB',(#938));
#935=APPLICATION_PROTOCOL_DEFINITION('international standard',
'automotive_design',2009,#936);
#936=APPLICATION_CONTEXT(
'Core Data for Automotive Mechanical Design Process');
#937=PRODUCT_CONTEXT('part definition',#936,'mechanical');
#938=PRODUCT('2025-12-05-22-00-25-822','NEWPCB',$,(#937));
#939=PRESENTATION_STYLE_ASSIGNMENT((#940));
#940=SURFACE_STYLE_USAGE(.BOTH.,#941);
#941=SURFACE_SIDE_STYLE('',(#942));
#942=SURFACE_STYLE_FILL_AREA(#943);
#943=FILL_AREA_STYLE('Steel - Satin',(#944));
#944=FILL_AREA_STYLE_COLOUR('Steel - Satin',#945);
#945=COLOUR_RGB('Steel - Satin',0.627450980392157,0.627450980392157,0.627450980392157);
ENDSEC;
END-ISO-10303-21;
